:SAMPLES-PER-SECOND 30
:FRAME-RANGE 1-1770
:FULLY-SPECIFIED
:DEGREES
1217
root  32.6272 39.7929 -33.735 176.399 -35.5267 179.941
RightUpLeg  -12.1908 -10.8085 -10.0881
RightLeg  46.2985 -4.05072 -4.84337
RightFoot  -4.76455 -0.892916 14.8948
RightToes  6.35937e-011 1.2921e-014 -6.02303e-014
Spine  9.95371 1.71275 -0.565451
Spine1  -2.29636 2.94001 -8.52584
HEad  -8.29946 36.3065 -10.5138
LeftShoulder1  1.09043 0.653856 -32.1965
LeftArm  20.0413 10.2024 -30.6895
LeftForeArm  -5.25621 -20.2821 -7.19526
LeftHand  0.333241 -2.35326 -4.81655
RightShoulder  6.8322 8.65741 49.2225
RightArm  19.0782 -2.09265 16.4807
RightForeArm  13.9305 8.43493 14.7508
RightHand  0.503364 5.54281 5.01252
LeftUpLeg  -9.90795 5.22484 -0.0565546
LeftLeg  15.4817 -16.6169 -5.64121
LeftFoot  -0.115616 -0.0874404 0.89702
LeftToes  3.18074e-010 1.39432e-010 -7.71186e-011
1218
root  33.0774 39.8602 -34.2196 176.694 -38.6134 -179.898
RightUpLeg  -10.5576 -2.69715 -10.8372
RightLeg  38.4167 -6.64517 -5.88542
RightFoot  -6.01384 -0.674442 13.5535
RightToes  6.35937e-011 1.2921e-014 -6.02303e-014
Spine  9.90395 1.5393 -0.622227
Spine1  -2.23345 2.71326 -7.84435
HEad  -7.95987 34.7837 -10.0413
LeftShoulder1  1.16752 0.450697 -32.1787
LeftArm  23.3799 9.51115 -32.7345
LeftForeArm  -4.28456 -22.7927 -5.405
LeftHand  0.345376 -2.79454 -4.69232
RightShoulder  6.79963 8.65801 48.9853
RightArm  21.8665 -1.85347 16.8919
RightForeArm  10.9959 10.8069 13.6856
RightHand  0.493343 5.52577 4.91521
LeftUpLeg  -10.0319 4.77237 0.675126
LeftLeg  14.8164 -19.415 -5.95897
LeftFoot  0.251259 0.0149914 -0.162688
LeftToes  3.18074e-010 1.39432e-010 -7.71186e-011
1219
root  33.5856 39.8069 -34.7068 177.444 -41.8722 179.565
RightUpLeg  -8.44448 8.39479 -11.9294
RightLeg  29.6469 -6.21785 -4.04513
RightFoot  -7.52636 -0.514301 13.8353
RightToes  6.35937e-011 1.2921e-014 -6.02303e-014
Spine  10.058 1.3319 -0.846543
Spine1  -2.3772 2.49513 -7.75876
HEad  -7.66019 33.1411 -9.84268
LeftShoulder1  1.21576 0.333135 -32.2841
LeftArm  23.0068 8.7514 -33.6775
LeftForeArm  -0.383574 -25.0826 -5.39039
LeftHand  0.394426 -3.15558 -5.13175
RightShoulder  6.75607 8.61232 48.855
RightArm  25.5092 -1.80447 17.2604
RightForeArm  7.67281 13.3848 12.237
RightHand  0.44923 5.54856 4.43715
LeftUpLeg  -10.8451 3.91263 0.843289
LeftLeg  15.1484 -21.7349 -6.42246
LeftFoot  0.252319 0.133414 -1.32956
LeftToes  3.18074e-010 1.39432e-010 -7.71186e-011
1220
root  34.1703 39.6384 -35.2151 178.505 -45.6104 178.479
RightUpLeg  -6.21025 19.5843 -12.906
RightLeg  21.6012 -3.10425 -1.5662
RightFoot  -6.57896 -0.706514 15.8137
RightToes  6.35937e-011 1.2921e-014 -6.02303e-014
Spine  10.4823 1.11146 -1.33695
Spine1  -2.57294 2.2302 -7.77521
HEad  -7.30648 31.465 -9.99643
LeftShoulder1  1.2493 0.255973 -32.4068
LeftArm  21.9379 7.91324 -34.2344
LeftForeArm  2.83166 -26.993 -5.6601
LeftHand  0.462744 -3.51271 -5.7887
RightShoulder  6.61448 8.46202 48.4306
RightArm  29.6341 -2.02687 17.725
RightForeArm  3.72284 16.0505 10.4029
RightHand  0.404454 5.5196 3.97577
LeftUpLeg  -12.2596 2.00165 0.682478
LeftLeg  16.5573 -23.4293 -7.10481
LeftFoot  -0.18886 0.236193 -2.40813
LeftToes  3.18074e-010 1.39432e-010 -7.71186e-011
1221
root  34.8181 39.4237 -35.7106 -179.695 -50.1036 176.935
RightUpLeg  -4.81939 24.5758 -13.8034
RightLeg  17.3931 -1.26829 -0.656078
RightFoot  -10.2663 -0.25024 19.0173
RightToes  6.35937e-011 1.2921e-014 -6.02303e-014
Spine  10.8599 0.823301 -1.64234
Spine1  -2.84472 1.86937 -7.58647
HEad  -7.0464 29.3784 -10.6193
LeftShoulder1  1.30131 0.137727 -32.6018
LeftArm  20.9096 6.93111 -34.5897
LeftForeArm  4.74395 -28.3754 -5.88297
LeftHand  0.485334 -3.61617 -6.00512
RightShoulder  6.36746 8.1522 47.8574
RightArm  33.3438 -2.34679 18.0293
RightForeArm  -0.0272462 18.3413 8.5972
RightHand  0.362639 5.42527 3.56863
LeftUpLeg  -14.2928 -1.54555 0.461402
LeftLeg  17.8114 -24.3119 -7.68198
LeftFoot  -0.404617 0.368365 -3.82279
LeftToes  3.18074e-010 1.39432e-010 -7.71186e-011
